<svg id="Layer_1" data-name="Layer 1" xmlns="http://www.w3.org/2000/svg" viewBox="0 0 200 200"><defs><style>.cls-1{fill:#f4f4f4;}.cls-2{fill:#d2d2d2;stroke:#d2d2d2;stroke-miterlimit:10;stroke-width:2px;}.cls-3{fill:#fff;}</style></defs><title>Artboard 1 copy 3</title><rect class="cls-1" x="59.15" y="39.74" width="97.99" height="126.43" rx="2.18" ry="2.18"/><path class="cls-2" d="M145.52,158.56H72.31a3.34,3.34,0,0,1-2.24-.87,3.34,3.34,0,0,1-2.24.87h-18A3.66,3.66,0,0,1,46.27,155v-119a3.54,3.54,0,0,1,3.52-3.37h18a3.34,3.34,0,0,1,2.24.87,3.34,3.34,0,0,1,2.24-.87h73.2a3.44,3.44,0,0,1,3.43,3.37V155A3.56,3.56,0,0,1,145.52,158.56Zm-74.34-3.35a1.14,1.14,0,0,0,1.14,1.14h73.2a1.37,1.37,0,0,0,1.22-1.31v-119a1.24,1.24,0,0,0-1.22-1.16H72.31a1.14,1.14,0,0,0-1.14,1.14,1.1,1.1,0,0,1-2.21,0,1.14,1.14,0,0,0-1.14-1.14h-18a1.33,1.33,0,0,0-1.31,1.16V155a1.46,1.46,0,0,0,1.31,1.31h18A1.14,1.14,0,0,0,69,155.22a1.1,1.1,0,0,1,2.21,0Z"/><path class="cls-2" d="M55.24,49.45H42.86a1.12,1.12,0,1,1,0-2.24H55.24a1.12,1.12,0,1,1,0,2.24Z"/><path class="cls-2" d="M55.24,68.53H42.86a1.12,1.12,0,1,1,0-2.24H55.24a1.12,1.12,0,1,1,0,2.24Z"/><path class="cls-2" d="M55.24,87.61H42.86a1.12,1.12,0,1,1,0-2.24H55.24a1.12,1.12,0,1,1,0,2.24Z"/><path class="cls-2" d="M55.24,107.81H42.86a1.12,1.12,0,0,1,0-2.24H55.24a1.12,1.12,0,0,1,0,2.24Z"/><path class="cls-2" d="M55.24,126.89H42.86a1.12,1.12,0,1,1,0-2.24H55.24a1.12,1.12,0,0,1,0,2.24Z"/><path class="cls-2" d="M55.24,146H42.86a1.12,1.12,0,0,1,0-2.24H55.24a1.12,1.12,0,1,1,0,2.24Z"/><rect class="cls-3" x="83.2" y="56.32" width="51.42" height="23.57" rx="3.37" ry="3.37"/><path class="cls-2" d="M131.26,81H86.57a4.49,4.49,0,0,1-4.49-4.49V59.69a4.49,4.49,0,0,1,4.49-4.49h44.69a4.49,4.49,0,0,1,4.49,4.49V76.52A4.49,4.49,0,0,1,131.26,81ZM86.57,57.44a2.25,2.25,0,0,0-2.24,2.24V76.52a2.25,2.25,0,0,0,2.24,2.24h44.69a2.25,2.25,0,0,0,2.24-2.24V59.69a2.25,2.25,0,0,0-2.24-2.24Z"/><path class="cls-2" d="M121.76,64.61h-32a1.13,1.13,0,0,1,0-2.24h32a1.13,1.13,0,0,1,0,2.24Z"/><path class="cls-2" d="M106.79,73.23H89.9a1.12,1.12,0,1,1,0-2.24h16.89a1.12,1.12,0,1,1,0,2.24Z"/><path class="cls-2" d="M154.9,167.29H59.18a3.37,3.37,0,0,1-3.37-3.37V157.5a1.12,1.12,0,1,1,2.25,0v6.42A1.12,1.12,0,0,0,59.18,165H154.9a1.12,1.12,0,0,0,1.12-1.12V98.17a1.12,1.12,0,1,1,2.25,0v65.75A3.37,3.37,0,0,1,154.9,167.29Z"/><path class="cls-2" d="M157.14,62.21A1.12,1.12,0,0,1,156,61.09V45a1.12,1.12,0,0,0-1.12-1.12h-7.06a1.12,1.12,0,0,1,0-2.25h7.06A3.37,3.37,0,0,1,158.27,45V61.09A1.12,1.12,0,0,1,157.14,62.21Z"/><path class="cls-2" d="M70.07,112.36a1.1,1.1,0,0,1-1.1-1.1V36a1.1,1.1,0,0,1,2.21,0v75.23A1.1,1.1,0,0,1,70.07,112.36Z"/><path class="cls-2" d="M70.07,156.71a1.1,1.1,0,0,1-1.1-1.1v-17a1.1,1.1,0,1,1,2.21,0v17A1.1,1.1,0,0,1,70.07,156.71Z"/></svg>